<svg width="96" height="96" xmlns="http://www.w3.org/2000/svg" xmlns:xlink="http://www.w3.org/1999/xlink" overflow="hidden"><defs><clipPath id="clip0"><rect x="192" y="0" width="96" height="96"/></clipPath></defs><g clip-path="url(#clip0)" transform="translate(-192 0)"><path d="M270.565 16.991 209.4 16.991C207.53 17.0094 206.018 18.5209 206 20.391L206 61.666C205.983 63.5271 207.479 65.0494 209.34 65.066 209.36 65.0662 209.38 65.0662 209.4 65.066L246.78 65.066 260.37 78.957 260.37 65.164 270.565 65.164C272.435 65.1456 273.947 63.6341 273.965 61.764L273.965 20.489C273.988 18.5856 272.468 17.0217 270.565 16.991ZM237.8 25 242.208 25 242.208 45.712 237.8 45.712ZM240 56C237.971 56.0006 236.326 54.3561 236.325 52.327 236.324 50.2979 237.969 48.6526 239.998 48.652 242.027 48.6514 243.672 50.2959 243.673 52.325 243.673 52.3253 243.673 52.3257 243.673 52.326 243.692 54.3357 242.079 55.9805 240.069 55.9999 240.049 56.0001 240.028 56.0001 240.008 56Z" stroke="#666666" fill="#666666"/></g></svg>