<svg width="96" height="96" xmlns="http://www.w3.org/2000/svg" xmlns:xlink="http://www.w3.org/1999/xlink" overflow="hidden"><defs><clipPath id="clip0"><rect x="288" y="0" width="96" height="96"/></clipPath></defs><g clip-path="url(#clip0)" transform="translate(-288 0)"><path d="M296 20 296 76 376 76 376 20 296 20ZM337.4 54.9C336.6 55.7 335.4 55.7 334.6 54.9L305 26 367.1 26 337.4 54.9ZM321.5 47.7 302 67.3 302 28.6 321.5 47.7ZM324.4 50.5 331.9 57.8C333.1 58.9 334.6 59.5 336.1 59.5 337.6 59.5 339.1 58.9 340.3 57.8L347.8 50.5 367.2 70 304.9 70 324.4 50.5ZM350.5 47.7 370 28.7 370 67.2 350.5 47.7Z" fill="#666666"/></g></svg>