<svg width="96" height="96" xmlns="http://www.w3.org/2000/svg" xmlns:xlink="http://www.w3.org/1999/xlink" overflow="hidden"><defs><clipPath id="clip0"><rect x="96" y="0" width="96" height="96"/></clipPath></defs><g clip-path="url(#clip0)" transform="translate(-96 0)"><path d="M110.625 63.669C109.938 62.4791 108.417 62.071 107.228 62.7575 106.038 63.444 105.63 64.9651 106.316 66.155L111.288 74.772C111.974 75.9627 113.496 76.3717 114.687 75.6855 115.877 74.9993 116.286 73.4777 115.6 72.287Z" stroke="#666666" fill="#666666"/><path d="M147 68.724 135.482 72.038 132.748 69.055 147.748 64.746ZM171.2 55.881 165.648 46.269 158.185 33.344 152.634 23.732C152.161 22.9499 151.143 22.6993 150.361 23.1723 150.254 23.2371 150.155 23.3138 150.065 23.401L112.282 59.858 119.739 72.784 129.185 70.132 133.411 74.689C134.042 75.3716 134.994 75.6574 135.896 75.435L148.408 71.872C148.574 71.789 148.822 71.707 148.988 71.624 149.6 71.2695 150.024 70.6633 150.148 69.967L151.308 63.835 170.282 58.449C171.211 58.0808 171.666 57.0289 171.298 56.0995 171.268 56.0245 171.233 55.9514 171.194 55.881Z" stroke="#666666" fill="#666666"/><path d="M170.165 32.5221 180.136 26.9138 182.097 30.4001 172.126 36.0084Z" stroke="#666666" fill="#666666"/><path d="M171.846 43.3424 172.925 39.4906 183.941 42.5749 182.863 46.4268Z" stroke="#666666" fill="#666666"/><path d="M163.684 29.0314 166.771 18.0156 170.622 19.0947 167.536 30.1105Z" stroke="#666666" fill="#666666"/></g></svg>