<svg width="1938" height="1937" xmlns="http://www.w3.org/2000/svg" xmlns:xlink="http://www.w3.org/1999/xlink" overflow="hidden"><defs><clipPath id="clip0"><rect x="1231" y="269" width="1938" height="1937"/></clipPath></defs><g clip-path="url(#clip0)" transform="translate(-1231 -269)"><path d="M1374.85 1716.53C1110.42 1260.58 1265.5 676.475 1721.22 411.911 1867.49 326.994 2033.7 282.505 2202.81 283.004L2200 1237.5Z" stroke="#FFFFFF" stroke-width="27.5" stroke-miterlimit="8" fill="#1565C0" fill-rule="evenodd"/><path d="M2197.72 283.252C2724.74 281.993 3152.99 708.204 3154.25 1235.22 3154.65 1404.45 3110.04 1570.75 3025 1717.06L2200 1237.5Z" stroke="#FFFFFF" stroke-width="27.5" stroke-miterlimit="8" fill="#00838F" fill-rule="evenodd"/><path d="M3027.54 1712.65C2765.12 2169.69 2181.89 2327.46 1724.85 2065.04 1578.09 1980.78 1456.38 1859 1372.19 1712.19L2200 1237.5Z" stroke="#FFFFFF" stroke-width="27.5" stroke-miterlimit="8" fill="#4527A0" fill-rule="evenodd"/><path d="M1515 1237.5C1515 858.909 1821.68 552 2200 552 2578.31 552 2885 858.909 2885 1237.5 2885 1616.09 2578.31 1923 2200 1923 1821.68 1923 1515 1616.09 1515 1237.5Z" stroke="#FFFFFF" stroke-width="27.5" stroke-miterlimit="8" fill="#AD1457" fill-rule="evenodd"/><text fill="#FFFFFF" font-family="Meiryo,Meiryo_MSFontService,sans-serif" font-weight="700" font-size="147" transform="matrix(1 0 0 1 1760 1274)">政治経営学部</text><path d="M1409.92 1157.97 1412.9 1143.53C1419.55 1145.04 1427.02 1147.28 1435.33 1150.23 1443.64 1153.19 1449.71 1155.79 1453.55 1158.02L1448.65 1170.67C1432.57 1164.05 1419.66 1159.82 1409.92 1157.97ZM1416.97 1106.84 1446.77 1106.25 1446.79 1120.53C1433.61 1121.19 1423.71 1121.27 1417.11 1120.78ZM1409.34 1072.5 1412 1053.59 1423.94 1055.27 1427.2 1032.1 1442.34 1034.23 1439.08 1057.4 1455.57 1059.72 1459.69 1030.44 1475.4 1032.65 1464.32 1111.4 1448.61 1109.19 1452.91 1078.63 1436.42 1076.31 1432.98 1100.76 1417.84 1098.63 1421.28 1074.18ZM1362.19 1071.15C1369.7 1068.63 1376.49 1064.83 1382.57 1059.74 1377.85 1052.46 1372.35 1047.07 1366.08 1043.58ZM1344.23 1093.2 1354.3 1021.7 1358.11 1018.82C1371.85 1023.17 1383.63 1032.15 1393.46 1045.76 1398.11 1039.12 1402.19 1031.09 1405.69 1021.68L1420.09 1033.2C1414.98 1045.48 1409.39 1055.16 1403.32 1062.23 1407.62 1072.21 1410.25 1083.88 1411.22 1097.26L1395.89 1101.63C1395.06 1091.7 1393.23 1082.72 1390.4 1074.69 1379.83 1082.82 1369.62 1087.44 1359.74 1088.57L1358.8 1095.25ZM1332.04 1128.31 1340.1 1113.28C1348.51 1119.82 1356.22 1126.8 1363.25 1134.22L1370.88 1128.91C1362.19 1120.97 1355.21 1115.28 1349.95 1111.83L1358.94 1097.37C1371.06 1107.77 1382.93 1119.21 1394.56 1131.67L1395.67 1116.6C1389.49 1117.23 1385.53 1117.71 1383.79 1118.05L1382.56 1104.68C1389.77 1103.52 1399.73 1102.29 1412.43 1100.98L1412.81 1115.32C1411.95 1115.24 1410.52 1115.28 1408.51 1115.44 1408.52 1117.08 1408.52 1119.21 1408.49 1121.81L1465.99 1129.9 1463.51 1147.53 1407.85 1139.7C1407.38 1149.59 1406.91 1156.89 1406.44 1161.61L1391.5 1161.17C1391.86 1158.61 1392.29 1155.03 1392.79 1150.41 1389.01 1146.4 1385.57 1142.87 1382.47 1139.82 1375.75 1144.29 1367.62 1150.03 1358.08 1157.05L1348.38 1145.1 1351.22 1142.96C1344.48 1136.94 1338.09 1132.06 1332.04 1128.31Z" fill="#FFFFFF" fill-rule="evenodd"/><text fill="#000000" fill-opacity="0" font-family="Arial,Arial_MSFontService,sans-serif" font-size="151.841" x="1332.04" y="1151.69">経</text><path d="M1465.51 992.644 1477.15 997.565 1506.87 927.293 1495.23 922.372ZM1429.52 964.795 1438.9 968.765 1459.57 919.912 1450.18 915.942ZM1411 976.136 1445.53 894.494 1477.93 908.195 1464.17 940.719 1469.58 947.451 1490.28 898.532 1531.72 916.063 1523.92 934.507 1519.69 932.718 1489.97 1002.99 1493.94 1004.67 1486.39 1022.52 1445.2 1005.1 1462.12 965.102 1456.34 959.229 1443.4 989.837ZM1389.76 916.182C1396.08 915.737 1403.66 915.673 1412.52 915.989L1418.7 901.379C1413.62 894.454 1408.94 888.834 1404.63 884.519L1416.29 868.563C1419.74 872.933 1423.22 877.547 1426.72 882.406L1433.26 866.937 1460.37 878.401 1454.02 893.407 1440.6 887.731 1402.8 977.108 1416.22 982.784 1409.82 997.923 1382.71 986.459 1389.34 970.792C1383.6 971.221 1378.76 971.722 1374.83 972.293L1376.1 953.814C1379.43 952.938 1386.58 952.14 1397.53 951.422L1404.83 934.168C1397.46 934.015 1391.68 933.986 1387.49 934.081Z" fill="#FFFFFF" fill-rule="evenodd"/><text fill="#000000" fill-opacity="0" font-family="Arial,Arial_MSFontService,sans-serif" font-size="155.579" x="1374.83" y="1003.07">営</text><path d="M1478.12 836.549 1521.22 765.901 1535.15 763.051C1536.64 776.791 1536.38 790.815 1534.37 805.121L1536.82 806.616 1564.6 761.091 1578.39 769.502 1550.61 815.028 1567.34 825.234C1571.1 827.527 1573.22 830.955 1573.72 835.517 1574.21 840.08 1573.14 844.526 1570.5 848.856L1558.53 868.463 1541.65 860.853 1551.45 844.8C1551.92 844.024 1552.06 842.989 1551.87 841.695 1551.68 840.401 1551.22 839.529 1550.48 839.081L1539.88 832.613 1509.86 881.815 1496.07 873.403 1526.09 824.201 1515.31 817.621 1519.87 810.146C1520.75 804.851 1521.35 800.005 1521.68 795.609L1491.66 844.811ZM1464.04 773.219C1468.84 773.346 1476.52 774.305 1487.08 776.099L1494.34 764.212C1490.2 756.024 1486.35 749.471 1482.79 744.553L1496.98 729.419C1499.12 732.906 1501.81 738.642 1505.07 746.627L1514.97 730.39 1539.85 745.568 1530.88 760.274 1518.07 752.46 1467.15 835.913 1480.33 843.951 1471.2 858.901 1445.96 843.499 1456.02 827.016C1449.31 826.622 1444.01 826.39 1440.13 826.32L1445.68 808.684C1450.58 808.646 1457.63 808.855 1466.82 809.309L1476.54 793.378C1468.77 792.335 1462.61 791.633 1458.07 791.271Z" fill="#FFFFFF" fill-rule="evenodd"/><text fill="#000000" fill-opacity="0" font-family="Arial,Arial_MSFontService,sans-serif" font-size="152.396" x="1440.13" y="862.765">学</text><path d="M1587.21 667.668C1605.77 664.995 1619.78 663.774 1629.23 664.003L1632.26 683.063C1614.3 683.348 1600.29 684.315 1590.23 685.965ZM1581.97 617.114 1594.83 602.135 1653.22 652.245 1659.3 643.179 1672.12 653.806 1665.86 663.09 1692.88 686.275 1680.02 701.255 1654.69 679.518 1626.7 720.951 1613.8 710.635 1642.11 668.72 1609.48 640.72 1612.14 656.145C1590.52 657.014 1576.66 657.987 1570.57 659.063L1568.34 640.602C1578.35 638.719 1590.72 637.605 1605.45 637.261ZM1546.36 657.398 1561.94 660.739C1560.3 665.446 1557.91 670.871 1554.78 677.014L1568.73 688.981 1578.68 677.379 1590.4 687.429 1580.44 699.031 1583.93 702.023C1589.76 702.493 1597.53 701.935 1607.21 700.347L1612.96 716.349C1609.39 716.69 1605.49 716.869 1601.25 716.887L1639.65 749.842 1627.26 764.277 1593.16 735.015C1596.59 745.646 1598.35 754.25 1598.44 760.826L1582.67 760.248C1582.27 754.544 1580.56 747.141 1577.56 738.038 1574.56 728.935 1571.14 721.035 1567.3 714.337L1553.98 729.861 1542.27 719.811 1556.34 703.415 1545.23 693.879C1541.06 700.645 1537.54 706.004 1534.65 709.958L1522.22 703.169C1526.6 696.964 1531.22 689.358 1536.08 680.351 1540.94 671.344 1544.37 663.693 1546.36 657.398Z" fill="#FFFFFF" fill-rule="evenodd"/><text fill="#000000" fill-opacity="0" font-family="Arial,Arial_MSFontService,sans-serif" font-size="162.141" x="1522.22" y="744.009">科</text><path d="M2692.45 590.55 2702.97 605.879C2697.05 610.662 2689.07 615.756 2679.05 621.161 2669.02 626.565 2660.12 630.597 2652.33 633.257L2644.38 614.748C2652.32 612.446 2661.2 608.622 2671.02 603.275 2680.85 597.929 2687.99 593.687 2692.45 590.55ZM2706.14 551.237C2709.97 564.13 2712.55 574.859 2713.87 583.424L2695.83 588.55C2694.54 578.856 2692.31 568.033 2689.14 556.081ZM2778.44 568.758 2794.68 581.443 2783.36 595.921 2811.64 618.022 2801.6 630.859 2773.33 608.759 2761.39 624.028 2793.34 649.001 2783.09 662.122 2740.34 628.706C2730.52 634.818 2719.4 641.005 2706.97 647.267 2720.77 656.655 2731.29 663.512 2738.54 667.839 2739.7 658.664 2740.51 650.945 2740.96 644.685L2759.07 648.908C2759.05 662.308 2757.35 679.356 2753.99 700.051L2734.39 695.296C2734.91 692.368 2735.46 689.062 2736.03 685.379 2716.97 675.273 2694.54 661.234 2668.74 643.261L2677.29 626.617 2689.76 635.366C2701.35 629.48 2712.62 622.899 2723.6 615.622L2701.71 598.516 2711.96 585.396 2745.16 611.342 2757.1 596.073 2729.55 574.547 2739.59 561.709 2767.13 583.235ZM2731.14 529.508C2735.21 544.349 2737.76 555.183 2738.81 562.01L2720.54 566.959C2718.95 556.723 2716.71 545.594 2713.84 533.571Z" fill="#FFFFFF" fill-rule="evenodd"/><text fill="#000000" fill-opacity="0" font-family="Arial,Arial_MSFontService,sans-serif" font-size="170.544" x="2644.38" y="678.733">法</text><path d="M2872.01 735.695 2866.17 740.109 2876.29 753.51 2882.13 749.096ZM2889.36 722.584 2883.52 726.998 2893.65 740.399 2899.49 735.985ZM2865.18 652.96 2871.27 669.591C2862.06 671.93 2852.28 672.934 2841.93 672.602 2831.57 672.27 2823.16 671.245 2816.71 669.526L2819.15 653.827C2834.23 656.405 2849.58 656.116 2865.18 652.96ZM2895.63 693.018 2907.57 708.824 2900.53 714.147 2921.82 742.323 2904.81 755.174 2910.56 762.791 2899.05 771.488 2893.3 763.871 2875.83 777.069 2854.54 748.893 2848.93 753.133 2871.91 783.543 2860.74 791.98 2837.76 761.571 2831.81 766.071 2857.16 799.63 2845.19 808.674 2819.84 775.114 2804.32 786.841 2792.26 771.121 2807.9 759.308 2785.91 730.216 2797.88 721.173 2819.86 750.265 2825.82 745.765 2805.61 719.02 2816.78 710.583 2836.99 737.327 2842.6 733.087 2825.68 710.695 2837.31 701.911 2854.23 724.303 2860.07 719.889 2841.55 695.378C2836.3 696.766 2828.61 697.898 2818.48 698.776L2819.73 700.437 2767.33 740.03 2755.78 724.739 2789.74 699.08C2785.11 698.914 2780.83 698.489 2776.9 697.805L2780.86 681.856C2788.34 682.863 2798.72 682.89 2812.01 681.939 2825.29 680.987 2834.84 679.482 2840.66 677.423L2844.53 689.798 2851.46 684.562 2871.58 711.192 2877.42 706.778 2860.93 684.959 2872.1 676.521 2888.59 698.341Z" fill="#FFFFFF" fill-rule="evenodd"/><text fill="#000000" fill-opacity="0" font-family="Arial,Arial_MSFontService,sans-serif" font-size="155.714" x="2755.78" y="789.21">律</text><path d="M2919.04 806.346 2958.67 879 2954.17 892.491C2941.53 886.904 2929.52 879.667 2918.13 870.78L2915.61 872.155 2941.15 918.974 2926.97 926.707 2901.43 879.888 2884.23 889.272C2880.36 891.38 2876.33 891.508 2872.13 889.655 2867.93 887.803 2864.62 884.651 2862.19 880.198L2851.19 860.033 2866.22 849.218 2875.23 865.728C2875.66 866.526 2876.49 867.165 2877.71 867.647 2878.92 868.128 2879.91 868.162 2880.67 867.75L2891.57 861.804 2863.97 811.204 2878.14 803.471 2905.74 854.07 2916.83 848.021 2921.03 855.708C2925.18 859.115 2929.07 862.059 2932.71 864.542L2905.11 813.942ZM2980.92 825.818C2978.42 829.911 2973.74 836.085 2966.91 844.338L2973.58 856.562C2982.74 857.07 2990.34 857.013 2996.37 856.39L3002.38 876.251C2998.3 876.354 2991.98 875.819 2983.44 874.647L2992.55 891.345 2966.96 905.3 2958.72 890.177 2971.89 882.993 2925.07 797.169 2911.52 804.559 2903.14 789.184 2929.1 775.023 2938.35 791.974C2942.04 786.36 2944.89 781.89 2946.89 778.563L2959.39 792.186C2956.97 796.448 2953.27 802.447 2948.28 810.185L2957.21 826.568C2962 820.358 2965.69 815.376 2968.28 811.622Z" fill="#FFFFFF" fill-rule="evenodd"/><text fill="#000000" fill-opacity="0" font-family="Arial,Arial_MSFontService,sans-serif" font-size="151.684" x="2851.19" y="907.747">学</text><path d="M3010.75 985.263C3003.78 1002.67 2997.84 1015.41 2992.91 1023.49L2974.89 1016.58C2983.63 1000.88 2989.79 988.266 2993.39 978.734ZM3057.15 1006.01 3063.69 1024.63 2991.1 1050.14 2995.91 1059.94 2980.3 1065.73 2975.39 1055.66 2941.8 1067.47 2935.26 1048.85 2966.74 1037.78 2944.86 992.824 2960.24 986.809 2982.39 1032.28 3022.95 1018.03 3008.27 1012.61C3018.32 993.456 3024.41 980.97 3026.52 975.154L3043.62 982.459C3040.25 992.063 3035.03 1003.33 3027.96 1016.27ZM3040.07 955.026 3029.38 966.845C3026.13 963.069 3022.62 958.29 3018.87 952.51L3001.53 958.602 3006.6 973.026 2992.04 978.143 2986.97 963.719 2982.64 965.242C2979.31 970.064 2975.91 977.065 2972.45 986.247L2955.71 983.227C2957.2 979.964 2959 976.492 2961.1 972.811L2913.36 989.59 2907.06 971.645 2949.45 956.746C2938.53 954.396 2930.2 951.618 2924.46 948.412L2932.84 935.041C2937.98 937.545 2945.25 939.773 2954.63 941.725 2964.01 943.676 2972.57 944.665 2980.28 944.691L2973.5 925.392 2988.06 920.275 2995.22 940.657 3009.04 935.802C3005.26 928.811 3002.39 923.077 3000.41 918.599L3012.5 911.229C3015.68 918.124 3019.96 925.928 3025.33 934.641 3030.7 943.354 3035.61 950.149 3040.07 955.026Z" fill="#FFFFFF" fill-rule="evenodd"/><text fill="#000000" fill-opacity="0" font-family="Arial,Arial_MSFontService,sans-serif" font-size="156.24" x="2907.06" y="1047.94">科</text><path d="M2475.13 2007.84C2475.59 2005.64 2476.28 2002.94 2477.2 1999.73L2482.39 2001.27 2478.31 1991.15 2492.22 1985.53 2479.96 1955.18C2473.17 1959.58 2468.54 1962.76 2466.09 1964.73L2461.17 1952.55C2454.41 1961.37 2449.49 1970.09 2446.42 1978.71 2457.96 1986.96 2467.53 1996.66 2475.13 2007.84ZM2467.59 2028.45C2460.78 2016.19 2452.3 2006.04 2442.14 1998.01 2441.38 2010.45 2443.21 2023.28 2447.62 2036.52ZM2493.35 2060.24 2473.67 2065.17C2472.73 2059.15 2472.08 2052.16 2471.71 2044.21L2428.18 2061.78 2422.13 2046.81 2429.52 2043.83C2422.26 2022.14 2420.49 2003.58 2424.22 1988.14 2415.76 1984.44 2404.96 1981.4 2391.81 1979.01L2397.48 1958.92C2409.45 1960.95 2420.4 1964.37 2430.34 1969.18 2435.29 1957.28 2442.86 1946.12 2453.05 1935.71L2465.65 1944.09C2481.46 1933.01 2497.91 1922.57 2515.01 1912.78L2524.64 1928.39C2523.06 1929.19 2520.89 1930.35 2518.15 1931.87L2544.22 1996.43 2527.85 2003.04 2502.77 1940.94 2496.4 1944.91 2527.09 2020.91 2553.72 2010.16 2559.82 2025.27 2497.39 2050.48 2491.29 2035.37 2509.39 2028.06 2497.99 1999.84 2489.34 2003.34 2493.4 2004.56C2489.59 2020.7 2489.58 2039.26 2493.35 2060.24Z" fill="#FFFFFF" fill-rule="evenodd"/><text fill="#000000" fill-opacity="0" font-family="Arial,Arial_MSFontService,sans-serif" font-size="152.39" x="2391.81" y="2046.12">政</text><path d="M2328.57 2013.39 2325.36 1987.46 2276.78 1993.49 2279.99 2019.42ZM2370.71 2020.17 2352.43 2016.79C2353.23 2009.22 2355.25 1999.98 2358.5 1989.06 2361.75 1978.15 2365.18 1968.99 2368.8 1961.6L2387.51 1969.04C2383.75 1975.97 2380.2 1985.08 2376.87 1996.36 2373.55 2007.65 2371.5 2015.58 2370.71 2020.17ZM2349.51 2025.91 2262.32 2036.72 2254.89 1976.82 2274.41 1974.4 2274.98 1979.03 2323.56 1973 2322.99 1968.37 2342.08 1966ZM2388.89 2057.62C2377.05 2051.23 2367.63 2045.48 2360.64 2040.37L2369.74 2023.97C2377.52 2029.91 2386.75 2035.97 2397.46 2042.16ZM2333.56 2096.67 2311.57 2093.76C2316.9 2078.82 2322.22 2066.13 2327.53 2055.68 2310.9 2058.42 2297.97 2060.73 2288.75 2062.59 2293.55 2068.22 2297.64 2072.82 2301.02 2076.4L2285.95 2086.66C2274.57 2076.51 2263.77 2064.27 2253.55 2049.96L2270.23 2039.79 2278.03 2049.6C2297.82 2044.74 2323.82 2039.58 2356.03 2034.14L2360.32 2050.67C2356.81 2051.16 2352.79 2051.73 2348.24 2052.39 2340.21 2069.3 2335.32 2084.06 2333.56 2096.67ZM2386.62 2090.66C2373.24 2083.07 2363.76 2077.23 2358.19 2073.14L2367.58 2056.72C2375.96 2062.81 2385.42 2069.09 2395.96 2075.55Z" fill="#FFFFFF" fill-rule="evenodd"/><text fill="#000000" fill-opacity="0" font-family="Arial,Arial_MSFontService,sans-serif" font-size="135.07" x="2253.55" y="2079.79">治</text><path d="M2217.44 2061.06 2134.7 2059.05 2125.27 2048.41C2136.43 2040.26 2148.7 2033.47 2162.09 2028.05L2162.16 2025.18 2108.85 2023.89 2109.24 2007.74 2162.55 2009.04 2163.03 1989.45C2163.13 1985.05 2165.04 1981.49 2168.74 1978.78 2172.45 1976.07 2176.83 1974.78 2181.9 1974.9L2204.87 1975.46 2206.72 1993.88 2187.92 1993.43C2187.01 1993.4 2186.04 1993.8 2185.02 1994.61 2183.99 1995.42 2183.47 1996.26 2183.45 1997.12L2183.15 2009.54 2240.77 2010.93 2240.38 2027.08 2182.75 2025.68 2182.45 2038.31 2173.69 2038.1C2168.67 2039.99 2164.17 2041.89 2160.2 2043.8L2217.82 2045.2ZM2169.63 2104.92C2167.34 2100.7 2164.33 2093.56 2160.6 2083.52L2146.68 2083.18C2141.66 2090.86 2137.91 2097.47 2135.43 2103.01L2115.23 2098.28C2117.18 2094.69 2120.8 2089.49 2126.09 2082.68L2107.07 2082.22 2107.78 2053.08 2125 2053.5 2124.64 2068.5 2222.37 2070.87 2222.74 2055.44 2240.25 2055.87 2239.53 2085.43 2220.23 2084.96C2223.25 2090.97 2225.69 2095.67 2227.57 2099.07L2209.52 2103.08C2207.04 2098.86 2203.7 2092.65 2199.49 2084.46L2180.84 2084.01C2183.82 2091.26 2186.29 2096.94 2188.25 2101.06Z" fill="#FFFFFF" fill-rule="evenodd"/><text fill="#000000" fill-opacity="0" font-family="Arial,Arial_MSFontService,sans-serif" font-size="130.025" x="2107.07" y="2088.66">学</text><path d="M2016.64 2051.02C2005.04 2036.28 1996.98 2024.76 1992.45 2016.46L2007.44 2004.31C2016.67 2019.72 2024.51 2031.37 2030.97 2039.25ZM1975.47 2080.83 1956.07 2077.19 1970.27 2001.56 1959.38 2000.83 1962.17 1984.41 1973.35 1985.2 1979.92 1950.21 1999.32 1953.85 1993.16 1986.65 2043.03 1990.18 2040.55 2006.51 1990.1 2002.95 1982.16 2045.21 1994.19 2035.2C2005.76 2053.48 2013.53 2065 2017.5 2069.74L2002.63 2080.89C1996 2073.17 1988.85 2063.01 1981.18 2050.43ZM2028.16 2091.53 2023.27 2076.37C2028.17 2075.44 2034.06 2074.79 2040.94 2074.43L2044.33 2056.37 2029.31 2053.55 2032.16 2038.38 2047.18 2041.2 2048.03 2036.69C2045.52 2031.4 2041.15 2024.95 2034.94 2017.36L2045.92 2004.38C2048 2007.3 2050.11 2010.59 2052.24 2014.25L2061.58 1964.52 2080.28 1968.03 2071.98 2012.19C2079.48 2003.91 2086.05 1998.08 2091.7 1994.71L2099.08 2008.66C2094.34 2011.86 2088.78 2017.04 2082.4 2024.19 2076.02 2031.34 2070.89 2038.25 2067 2044.92L2087.11 2048.7 2084.26 2063.87 2063.03 2059.88 2060.33 2074.27C2068.27 2074.5 2074.67 2074.87 2079.54 2075.4L2079.88 2089.55C2072.31 2088.86 2063.42 2088.67 2053.19 2088.96 2042.95 2089.25 2034.61 2090.11 2028.16 2091.53Z" fill="#FFFFFF" fill-rule="evenodd"/><text fill="#000000" fill-opacity="0" font-family="Arial,Arial_MSFontService,sans-serif" font-size="141.321" x="1956.07" y="2073.86">科</text></g></svg>