<svg width="96" height="96" xmlns="http://www.w3.org/2000/svg" xmlns:xlink="http://www.w3.org/1999/xlink" overflow="hidden"><defs><clipPath id="clip0"><rect x="96" y="96" width="96" height="96"/></clipPath></defs><g clip-path="url(#clip0)" transform="translate(-96 -96)"><path d="M154 114 159 114 159 108 154 108C150.133 107.998 146.466 109.722 144 112.7 141.534 109.722 137.867 107.998 134 108L129 108 129 114 134 114C137.864 114.004 140.996 117.136 141 121L141 141 133 141 133 147 141 147 141 167C140.996 170.864 137.864 173.996 134 174L129 174 129 180 134 180C137.867 180.002 141.534 178.278 144 175.3 146.466 178.278 150.133 180.002 154 180L159 180 159 174 154 174C150.136 173.996 147.004 170.864 147 167L147 147 155 147 155 141 147 141 147 121C147.004 117.136 150.136 114.004 154 114Z" stroke="#D9D9D9" fill="#D9D9D9"/></g></svg>