<svg width="96" height="96" xmlns="http://www.w3.org/2000/svg" xmlns:xlink="http://www.w3.org/1999/xlink" overflow="hidden"><defs><clipPath id="clip0"><rect x="194" y="96" width="96" height="96"/></clipPath></defs><g clip-path="url(#clip0)" transform="translate(-194 -96)"><path d="M266 167.6 252.31 145.78C252.065 145.38 251.629 145.137 251.16 145.14 250.689 145.14 250.251 145.382 250 145.78L246 152.2 254.58 166.08C255.306 167.178 255.462 168.557 255 169.79L264.7 169.79C265.494 169.83 266.17 169.218 266.21 168.424 266.224 168.134 266.151 167.847 266 167.6Z" stroke="#D9D9D9" fill="#D9D9D9"/><path d="M251.1 167.73 229.35 132.34C229.071 131.979 228.636 131.775 228.18 131.79L228 131.79 227.82 131.79C227.364 131.775 226.929 131.979 226.65 132.34L204.9 167.73C204.592 168.161 204.549 168.728 204.79 169.2 205.033 169.628 205.514 169.862 206 169.79L250 169.79C250.486 169.862 250.967 169.628 251.21 169.2 251.451 168.728 251.408 168.161 251.1 167.73ZM231.64 148.92 228.18 152 224.72 148.92 219 152.38 228 137.79 236.76 152Z" stroke="#D9D9D9" fill="#D9D9D9"/><path d="M218 134C218 135.657 216.657 137 215 137 213.343 137 212 135.657 212 134 212 132.343 213.343 131 215 131 216.657 131 218 132.343 218 134Z" stroke="#D9D9D9" fill="#D9D9D9"/><path d="M287 109 207 109 207 120 196 120 196 181.79 276 181.79 276 170.79 287 170.79ZM270 176 202 176 202 125.79 270 125.79ZM281 165 276 165 276 120 213 120 213 115 281 115Z" stroke="#D9D9D9" fill="#D9D9D9"/></g></svg>