<svg width="96" height="96" xmlns="http://www.w3.org/2000/svg" xmlns:xlink="http://www.w3.org/1999/xlink" overflow="hidden"><defs><clipPath id="clip0"><rect x="0" y="96" width="96" height="96"/></clipPath></defs><g clip-path="url(#clip0)" transform="matrix(1 0 0 1 0 -96)"><path d="M76 170C76 171.1 75.1 172 74 172 72.9 172 72 171.1 72 170L72 122 76 122 76 170ZM22 172C20.9 172 20 171.1 20 170L20 116 66 116 66 170C66 170.7 66.1 171.4 66.3 172L22 172ZM72 116 72 110 14 110 14 170C14 174.4 17.6 178 22 178L74 178C78.4 178 82 174.4 82 170L82 116 72 116Z" stroke="#D9D9D9" fill="#D9D9D9"/><path d="M24 122 62 122 62 126 24 126Z" stroke="#D9D9D9" fill="#D9D9D9"/><path d="M45 130 62 130 62 134 45 134Z" stroke="#D9D9D9" fill="#D9D9D9"/><path d="M45 138 62 138 62 142 45 142Z" stroke="#D9D9D9" fill="#D9D9D9"/><path d="M24 130 41 130 41 142 24 142Z" stroke="#D9D9D9" fill="#D9D9D9"/><path d="M24 146 62 146 62 150 24 150Z" stroke="#D9D9D9" fill="#D9D9D9"/><path d="M45 154 62 154 62 166 45 166Z" stroke="#D9D9D9" fill="#D9D9D9"/><path d="M24 154 41 154 41 158 24 158Z" stroke="#D9D9D9" fill="#D9D9D9"/><path d="M24 162 41 162 41 166 24 166Z" stroke="#D9D9D9" fill="#D9D9D9"/></g></svg>