<svg width="237" height="237" xmlns="http://www.w3.org/2000/svg" xmlns:xlink="http://www.w3.org/1999/xlink" overflow="hidden"><defs><clipPath id="clip0"><rect x="707" y="47" width="237" height="237"/></clipPath></defs><g clip-path="url(#clip0)" transform="translate(-707 -47)"><path d="M825.328 206.794C802.65 206.794 784.095 188.212 784.095 165.5 784.095 142.788 802.65 124.206 825.328 124.206 848.007 124.206 866.562 142.788 866.562 165.5 866.562 188.212 848.007 206.794 825.328 206.794ZM918.104 139.691C916.042 132.121 912.95 124.894 909.17 118.356L917.76 92.547 898.174 72.9325 872.403 81.5353C865.531 77.7502 858.315 74.6529 850.756 72.5882L839.073 48.5 811.584 48.5 799.557 72.5882C791.998 74.6529 784.782 77.7502 778.254 81.5353L752.482 72.9325 732.897 92.547 741.487 118.356C737.707 125.238 734.615 132.465 732.553 140.035L708.5 151.735 708.5 179.265 732.553 191.309C734.615 198.88 737.707 206.106 741.487 212.644L732.897 238.453 752.482 258.068 778.254 249.465C785.126 253.25 792.341 256.347 799.901 258.412L811.928 282.5 839.417 282.5 851.443 258.412C859.002 256.347 866.218 253.25 872.747 249.465L898.518 258.068 918.104 238.453 909.514 212.644C913.293 205.762 916.386 198.535 918.448 190.965L942.5 178.921 942.5 151.391 918.104 139.691Z" stroke="#5F6368" stroke-width="3.4375" stroke-miterlimit="8" fill="#5F6368" fill-rule="evenodd"/></g></svg>