<svg width="96" height="96" xmlns="http://www.w3.org/2000/svg" xmlns:xlink="http://www.w3.org/1999/xlink" overflow="hidden"><defs><clipPath id="clip0"><rect x="592" y="312" width="96" height="96"/></clipPath></defs><g clip-path="url(#clip0)" transform="translate(-592 -312)"><path d="M682.6 348.3 677.4 346.4 677.4 335.5 682.6 333.3 647.4 320.3 604.6 335.3C600.5 337.3 600.4 342.8 600.4 347.3 600.4 348.8 600.6 350.3 600.9 351.7 597.5 353.9 597.4 359 597.4 363.3 597.4 366.8 598.2 370 600.4 372 599.9 373.7 600.2 375.8 600.2 378.3 600.2 382.8 601.4 386.9 605.4 388.3L633.2 399.8 682.4 379.4 677.2 377.5 677.2 366.5 682.4 364.3 674.4 361.3 674.4 351.7 682.6 348.3ZM605.8 342.3 633.6 353.2 673.5 337.1 673.5 345.7 633.6 362.3 605.8 351.3 605.8 342.3ZM673.3 376.8 633.4 393.3 605.5 382.3 605.5 374.5 630.4 384.7 673.4 367.7 673.3 376.8ZM670.5 361.8 630.6 378.3 602.8 367.3 602.8 358.3 631.4 369.7 670.6 353.3 670.6 361.8Z" stroke="#666666" fill="#666666"/></g></svg>