<svg width="3029" height="874" xmlns="http://www.w3.org/2000/svg" xmlns:xlink="http://www.w3.org/1999/xlink" overflow="hidden"><defs><clipPath id="clip0"><rect x="731" y="631" width="3029" height="874"/></clipPath><clipPath id="clip1"><rect x="731" y="631" width="576" height="576"/></clipPath><clipPath id="clip2"><rect x="731" y="631" width="576" height="576"/></clipPath><clipPath id="clip3"><rect x="731" y="631" width="576" height="576"/></clipPath></defs><g clip-path="url(#clip0)" transform="translate(-731 -631)"><text font-family="HGMinchoE,HGMinchoE_MSFontService,sans-serif" font-weight="400" font-size="367" transform="matrix(1 0 0 1 1339.83 1177)">ゆっくり大学<tspan font-size="128" x="533.385" y="194">YUKKURI UNIVERSITY</tspan></text><path d="M810.5 1207.5C810.5 1092.07 904.073 998.5 1019.5 998.5 1134.93 998.5 1228.5 1092.07 1228.5 1207.5 1228.5 1322.93 1134.93 1416.5 1019.5 1416.5 904.073 1416.5 810.5 1322.93 810.5 1207.5Z" stroke="#3B3838" stroke-width="4.58333" stroke-miterlimit="8" fill="#3B3838" fill-rule="evenodd"/><text fill="#FFFFFF" font-family="Yu Gothic,Yu Gothic_MSFontService,sans-serif" font-weight="400" font-size="248" transform="matrix(1 0 0 1 895.145 1286)">ゆ</text><g clip-path="url(#clip1)"><g clip-path="url(#clip2)"><g clip-path="url(#clip3)"><path d="M851 926.8 851 997C851 1030 926 1063 1019 1063 1112 1063 1187 1030 1187 997L1187 926.8 1019 986.2 851 926.8Z" stroke="#FFFFFF" stroke-width="13.7964" fill="#3B3838"/><path d="M1019 960.4 1280.6 868.6 1019 775 757.4 868.6 791 880.6 791 991C791 997.6 796.4 1003 803 1003 809.6 1003 815 997.6 815 991L815 889 1019 960.4Z" stroke="#FFFFFF" stroke-width="13.7964" fill="#3B3838"/></g></g></g></g></svg>